Coordinates
version=1
nRows=14
nColumns=24
inDegrees=yes

Units are S.I. units (second, meters, Newtons, ...)
Angles are in degrees.

endheader
time	pelvis_tilt	pelvis_list	pelvis_rotation	pelvis_tx	pelvis_ty	pelvis_tz	hip_flexion_r	hip_adduction_r	hip_rotation_r	knee_angle_r	ankle_angle_r	subtalar_angle_r	mtp_angle_r	hip_flexion_l	hip_adduction_l	hip_rotation_l	knee_angle_l	ankle_angle_l	subtalar_angle_l	mtp_angle_l	lumbar_extension	lumbar_bending	lumbar_rotation
      3.63500000	     35.08812776	      3.88258244	      8.16345863	     -0.29015500	      0.66602610	     -0.28605967	    -23.19960409	      4.59412591	    -11.10877453	    -22.20659687	     23.21223272	      7.17755302	      0.00000000	    -19.48023732	     -6.62843617	     -3.32715199	    -72.92206536	      1.53754959	     -4.52296714	      0.00000000	    -63.07321869	      1.51614468	     -3.21525776
      3.64000000	     35.00147972	      3.94586794	      7.63800595	     -0.28386985	      0.66741485	     -0.28569178	    -24.16243102	      4.42588404	    -10.74726395	    -21.34704002	     23.27209183	      7.50424354	      0.00000000	    -18.41868335	     -6.03109522	     -3.70581140	    -72.62532510	      2.35380917	     -4.37484887	      0.00000000	    -62.99978163	      1.02147037	     -2.90380585
      3.64500000	     34.91767334	      4.00006172	      7.11828860	     -0.27760698	      0.66870225	     -0.28535740	    -25.12015051	      4.25559099	    -10.40685422	    -20.48409081	     23.30680262	      7.78635186	      0.00000000	    -17.38221688	     -5.46025214	     -4.09545013	    -72.22639946	      3.13637130	     -4.18425228	      0.00000000	    -62.93047761	      0.53761300	     -2.59469213
      3.65000000	     34.86881745	      4.00976289	      6.54544009	     -0.27131689	      0.66990300	     -0.28500470	    -26.11313047	      4.09941805	    -10.02038421	    -19.60216324	     23.36410580	      8.05711904	      0.00000000	    -16.43255096	     -4.95186845	     -4.58020971	    -71.70388817	      3.86367770	     -3.96213419	      0.00000000	    -62.87733792	      0.05272343	     -2.24470860
      3.65500000	     34.77443402	      4.07190710	      6.07914664	     -0.26514800	      0.67097039	     -0.28479947	    -27.03275649	      3.91363905	     -9.75789426	    -18.75780584	     23.33580006	      8.26039070	      0.00000000	    -15.41343915	     -4.40299098	     -4.92095400	    -71.11666328	      4.58825675	     -3.69084543	      0.00000000	    -62.81460587	     -0.36568254	     -1.96370666
      3.66000000	     34.82361736	      4.03086753	      5.40806076	     -0.25892129	      0.67201991	     -0.28449812	    -28.09548283	      3.73255504	     -9.30937041	    -17.90103304	     23.34196598	      8.48665388	      0.00000000	    -14.66720687	     -3.95177428	     -5.53441458	    -70.33918334	      5.27819175	     -3.46689891	      0.00000000	    -62.86552285	     -0.85060514	     -1.50334778
      3.66500000	     34.72491269	      4.05048993	      4.97327105	     -0.25271932	      0.67283018	     -0.28430631	    -29.00322576	      3.58748273	     -9.12008226	    -17.04431189	     23.37635202	      8.65455941	      0.00000000	    -13.69668804	     -3.51586592	     -5.89891709	    -69.56457215	      5.92098941	     -3.08884175	      0.00000000	    -62.78389499	     -1.21763202	     -1.27510454
      3.67000000	     34.65227282	      4.04543363	      4.50868489	     -0.24654971	      0.67353870	     -0.28416200	    -29.91438851	      3.43584251	     -8.91780103	    -16.21705420	     23.39728275	      8.82882857	      0.00000000	    -12.79765109	     -3.10654190	     -6.30105038	    -68.67592824	      6.54391396	     -2.70160912	      0.00000000	    -62.73118071	     -1.56922661	     -0.99130248
      3.67500000	     34.58742443	      4.03356984	      4.05144082	     -0.24039302	      0.67414007	     -0.28407817	    -30.81633596	      3.28291927	     -8.71997339	    -15.41603644	     23.40184263	      8.97739084	      0.00000000	    -11.94498652	     -2.71183493	     -6.69421865	    -67.67571502	      7.12520414	     -2.30241863	      0.00000000	    -62.69163340	     -1.88650149	     -0.68828174
      3.68000000	     34.55791914	      3.98561768	      3.56933487	     -0.23423519	      0.67462549	     -0.28397799	    -31.74391861	      3.14549762	     -8.53589739	    -14.62376665	     23.43445224	      9.10958034	      0.00000000	    -11.17548779	     -2.38221067	     -7.14699661	    -66.57363715	      7.67627709	     -1.90846219	      0.00000000	    -62.68383655	     -2.20523382	     -0.37112630
      3.68500000	     34.65215135	      3.90088173	      2.98984798	     -0.22812299	      0.67507704	     -0.28386820	    -32.78129817	      2.98398234	     -8.25900607	    -13.85943029	     23.43993969	      9.22169359	      0.00000000	    -10.62113316	     -2.08298094	     -7.71450230	    -65.31263593	      8.20718035	     -1.64974952	      0.00000000	    -62.81135653	     -2.55168261	      0.03340637
      3.69000000	     34.53927910	      3.84235473	      2.65732016	     -0.22200413	      0.67522431	     -0.28384576	    -33.58854606	      2.92266021	     -8.23974724	    -13.11554352	     23.49870127	      9.28347694	      0.00000000	     -9.77816339	     -1.83430336	     -8.04634488	    -64.08185274	      8.66329021	     -1.24427329	      0.00000000	    -62.74166186	     -2.76119104	      0.26007647
      3.69500000	     34.48007135	      3.75324971	      2.27639912	     -0.21587861	      0.67529448	     -0.28385859	    -34.43429825	      2.85066480	     -8.21010038	    -12.40648179	     23.57739793	      9.37551855	      0.00000000	     -9.06323606	     -1.61857147	     -8.44093931	    -62.71636620	      9.09169448	     -0.82254964	      0.00000000	    -62.71909289	     -2.95906859	      0.54666584
      3.70000000	     34.61671038	      3.62440291	      1.72800334	     -0.20977887	      0.67539525	     -0.28382227	    -35.47316532	      2.71398269	     -8.05661620	    -11.72149652	     23.65080092	      9.47121104	      0.00000000	     -8.68348203	     -1.42198955	     -9.02715422	    -61.14524452	      9.51054167	     -0.57102312	      0.00000000	    -62.89211595	     -3.22643359	      0.93957905
